<?xml version="1.0" encoding="UTF-8" standalone="no"?>
<svg
   viewBox="0 0 200 200"
   version="1.1"
   id="svg1"
   sodipodi:docname="cod-logo-black.svg"
   inkscape:version="1.3 (0e150ed6c4, 2023-07-21)"
   xmlns:inkscape="http://www.inkscape.org/namespaces/inkscape"
   xmlns:sodipodi="http://sodipodi.sourceforge.net/DTD/sodipodi-0.dtd"
   xmlns="http://www.w3.org/2000/svg"
   xmlns:svg="http://www.w3.org/2000/svg">
  <defs
     id="defs1" />
  <sodipodi:namedview
     id="namedview1"
     pagecolor="#ffffff"
     bordercolor="#000000"
     borderopacity="0.25"
     inkscape:showpageshadow="2"
     inkscape:pageopacity="0.0"
     inkscape:pagecheckerboard="0"
     inkscape:deskcolor="#d1d1d1"
     inkscape:zoom="5.2255191"
     inkscape:cx="116.54345"
     inkscape:cy="91.187113"
     inkscape:window-width="2880"
     inkscape:window-height="1514"
     inkscape:window-x="-11"
     inkscape:window-y="-11"
     inkscape:window-maximized="1"
     inkscape:current-layer="svg1" />
  <g
     id="SvgjsG1525"
     featurekey="Wg4LIr-0"
     transform="matrix(15.4605,0,0,14.522445,1.9414911,-96.093513)"
     fill="#000000">
    <path
       d="m 7.36,6.66 c 1.88,0 3.6,0.78 4.84,2 l -1.58,1.62 C 9.78,9.44 8.62,8.92 7.36,8.92 c -2.54,0 -4.58,2.06 -4.58,4.6 0,2.52 2.04,4.6 4.58,4.6 1.26,0 2.42,-0.54 3.26,-1.36 l 1.58,1.6 c -1.24,1.26 -2.96,2.02 -4.84,2.02 -3.8,0 -6.86,-3.08 -6.86,-6.86 0,-3.8 3.06,-6.86 6.86,-6.86 z m 0,5.22 c 0.9,0 1.62,0.74 1.62,1.64 0,0.9 -0.72,1.62 -1.62,1.62 -0.92,0 -1.64,-0.72 -1.64,-1.62 0,-0.9 0.72,-1.64 1.64,-1.64 z"
       id="path1" />
  </g>
</svg>
