<svg xmlns="http://www.w3.org/2000/svg" viewBox="0 0 200 200">
    <g id="SvgjsG1525" featurekey="Wg4LIr-0" transform="matrix(7.478631990962103,0,0,7.478631990962103,0,0)" fill="white">
        <path d="M7.36 6.66 c1.88 0 3.6 0.78 4.84 2 l-1.58 1.62 c-0.84 -0.84 -2 -1.36 -3.26 -1.36 c-2.54 0 -4.58 2.06 -4.58 4.6 c0 2.52 2.04 4.6 4.58 4.6 c1.26 0 2.42 -0.54 3.26 -1.36 l1.58 1.6 c-1.24 1.26 -2.96 2.02 -4.84 2.02 c-3.8 0 -6.86 -3.08 -6.86 -6.86 c0 -3.8 3.06 -6.86 6.86 -6.86 z M7.36 11.88 c0.9 0 1.62 0.74 1.62 1.64 s-0.72 1.62 -1.62 1.62 c-0.92 0 -1.64 -0.72 -1.64 -1.62 s0.72 -1.64 1.64 -1.64 z"></path>
    </g>
</svg>